<?xml version="1.0" encoding="UTF-8" ?>
<!DOCTYPE svg PUBLIC "-//W3C//DTD SVG 1.1//EN" "http://www.w3.org/Graphics/SVG/1.1/DTD/svg11.dtd">
<svg width="144pt" height="144pt" viewBox="0 0 144 144" version="1.1" xmlns="http://www.w3.org/2000/svg">
<g id="#000000ff">
<path fill="#000000" opacity="1.00" d=" M 47.48 21.68 C 56.66 17.86 67.10 23.28 71.84 31.43 C 72.74 28.89 73.81 26.41 74.94 23.96 C 76.20 24.19 77.46 24.42 78.72 24.64 C 77.30 28.92 75.47 33.06 74.22 37.40 C 81.13 36.47 87.94 33.79 95.02 34.84 C 103.34 35.64 110.59 40.96 115.39 47.58 C 122.19 57.16 124.11 69.76 121.49 81.11 C 118.70 92.86 113.06 104.00 105.07 113.07 C 99.94 118.75 93.13 124.39 84.98 123.76 C 79.23 123.83 73.68 120.42 67.93 122.27 C 61.89 123.85 55.05 124.90 49.36 121.63 C 41.17 117.08 35.25 109.37 30.59 101.41 C 24.00 89.75 19.36 75.99 22.26 62.51 C 24.29 51.38 31.61 41.26 41.96 36.49 C 39.12 32.50 37.07 28.01 35.93 23.24 C 39.86 23.65 43.85 23.35 47.48 21.68 M 40.11 26.78 C 42.68 33.91 48.89 40.50 56.96 40.34 C 62.08 40.61 65.58 36.46 69.62 34.07 C 67.01 29.13 62.60 24.97 56.97 23.91 C 51.10 22.26 45.86 26.44 40.11 26.78 M 73.37 41.03 C 72.88 43.95 72.51 46.89 72.26 49.84 C 70.91 50.01 69.54 49.98 68.18 49.88 C 68.32 48.33 68.44 46.78 68.57 45.23 C 68.67 43.63 68.74 42.04 68.79 40.44 C 64.69 40.85 61.15 43.58 56.97 43.43 C 52.58 43.60 48.53 41.63 44.92 39.33 C 36.85 42.46 30.47 49.28 27.53 57.39 C 23.57 67.84 24.80 79.62 29.05 89.78 C 33.13 99.46 38.62 109.10 47.06 115.58 C 50.58 118.61 55.18 120.79 59.94 120.08 C 65.51 119.26 71.12 117.15 76.80 118.65 C 82.15 120.00 88.17 121.33 93.20 118.22 C 103.04 112.40 109.36 102.20 114.00 92.04 C 119.24 80.67 120.92 67.03 115.64 55.37 C 111.63 46.45 103.12 38.61 92.92 38.41 C 86.25 37.91 79.98 40.77 73.37 41.03 Z" />
</g>
<g id="#b1cc33ff">
<path fill="#b1cc33" opacity="1.00" d=" M 40.11 26.78 C 45.86 26.44 51.10 22.26 56.97 23.91 C 62.60 24.97 67.01 29.13 69.62 34.07 C 65.58 36.46 62.08 40.61 56.96 40.34 C 48.89 40.50 42.68 33.91 40.11 26.78 Z" />
</g>
<g id="#d22f27ff">
<path fill="#d22f27" opacity="1.00" d=" M 73.37 41.03 C 79.98 40.77 86.25 37.91 92.92 38.41 C 103.12 38.61 111.63 46.45 115.64 55.37 C 120.92 67.03 119.24 80.67 114.00 92.04 C 109.36 102.20 103.04 112.40 93.20 118.22 C 88.17 121.33 82.15 120.00 76.80 118.65 C 71.12 117.15 65.51 119.26 59.94 120.08 C 55.18 120.79 50.58 118.61 47.06 115.58 C 57.84 116.25 69.19 116.71 79.35 112.43 C 88.66 108.24 95.55 99.15 97.00 89.04 C 98.66 77.88 97.35 65.68 90.71 56.25 C 88.20 52.49 84.66 49.60 80.96 47.09 C 78.14 48.22 75.26 49.26 72.26 49.84 C 72.51 46.89 72.88 43.95 73.37 41.03 Z" />
<path fill="#d22f27" opacity="1.00" d=" M 59.26 45.83 C 62.36 45.55 65.46 45.37 68.57 45.23 C 68.44 46.78 68.32 48.33 68.18 49.88 C 64.76 49.77 61.80 47.99 59.26 45.83 Z" />
</g>
<g id="#ea5a47ff">
<path fill="#ea5a47" opacity="1.00" d=" M 27.53 57.39 C 30.47 49.28 36.85 42.46 44.92 39.33 C 48.53 41.63 52.58 43.60 56.97 43.43 C 61.15 43.58 64.69 40.85 68.79 40.44 C 68.74 42.04 68.67 43.63 68.57 45.23 C 65.46 45.37 62.36 45.55 59.26 45.83 C 61.80 47.99 64.76 49.77 68.18 49.88 C 69.54 49.98 70.91 50.01 72.26 49.84 C 75.26 49.26 78.14 48.22 80.96 47.09 C 84.66 49.60 88.20 52.49 90.71 56.25 C 97.35 65.68 98.66 77.88 97.00 89.04 C 95.55 99.15 88.66 108.24 79.35 112.43 C 69.19 116.71 57.84 116.25 47.06 115.58 C 38.62 109.10 33.13 99.46 29.05 89.78 C 24.80 79.62 23.57 67.84 27.53 57.39 M 41.45 54.47 C 38.42 57.59 37.89 63.05 40.52 66.58 C 41.89 68.49 45.12 68.24 46.41 66.36 C 48.98 63.04 49.48 57.64 46.55 54.39 C 45.28 52.80 42.74 52.99 41.45 54.47 Z" />
</g>
<g id="#ffa7c0ff">
<path fill="#ffa7c0" opacity="1.00" d=" M 41.45 54.47 C 42.74 52.99 45.28 52.80 46.55 54.39 C 49.48 57.64 48.98 63.04 46.41 66.36 C 45.12 68.24 41.89 68.49 40.52 66.58 C 37.89 63.05 38.42 57.59 41.45 54.47 Z" />
</g>
</svg>
