<?xml version="1.0" encoding="UTF-8" ?>
<!DOCTYPE svg PUBLIC "-//W3C//DTD SVG 1.1//EN" "http://www.w3.org/Graphics/SVG/1.1/DTD/svg11.dtd">
<svg width="144pt" height="144pt" viewBox="0 0 144 144" version="1.1" xmlns="http://www.w3.org/2000/svg">
<g id="#000000ff">
<path fill="#000000" opacity="1.00" d=" M 75.35 19.32 C 78.76 18.05 80.03 22.12 82.03 23.96 C 83.08 25.41 85.66 27.10 83.96 29.05 C 81.65 30.95 80.04 27.69 78.73 26.25 C 77.29 24.07 74.16 22.33 75.35 19.32 Z" />
<path fill="#000000" opacity="1.00" d=" M 88.36 30.44 C 90.30 30.22 91.82 31.78 93.45 32.60 C 104.83 39.40 113.10 51.07 115.84 64.03 C 118.30 75.91 116.47 88.73 110.19 99.17 C 102.95 111.54 90.04 120.48 75.83 122.59 C 61.21 125.15 45.55 120.32 34.79 110.13 C 27.79 103.71 22.82 95.17 20.58 85.95 C 19.26 82.72 23.49 79.96 26.09 79.66 C 30.58 84.73 35.92 89.25 42.40 91.51 C 51.55 94.91 62.10 94.33 70.78 89.86 C 80.67 84.91 87.99 75.07 89.70 64.12 C 91.58 54.29 88.56 43.94 82.59 36.04 C 82.40 32.97 86.29 31.97 88.36 30.44 M 87.30 35.92 C 93.06 44.24 95.50 54.91 93.61 64.88 C 91.93 75.40 85.63 85.08 76.77 90.98 C 66.20 98.19 52.06 99.73 40.19 94.96 C 34.16 92.77 29.27 88.56 24.68 84.24 C 24.49 85.69 25.06 87.04 25.53 88.37 C 31.47 108.40 53.17 121.99 73.78 118.86 C 86.44 117.33 98.27 110.05 105.31 99.42 C 113.76 87.14 115.23 70.51 109.39 56.84 C 105.93 48.88 100.27 41.53 92.72 37.12 C 91.49 35.75 88.84 34.02 87.30 35.92 Z" />
<path fill="#000000" opacity="1.00" d=" M 99.22 49.73 C 100.28 49.49 101.35 49.35 102.43 49.37 C 107.93 62.65 105.58 78.59 97.02 90.05 C 88.56 101.91 73.54 108.72 59.05 107.08 C 52.37 106.34 45.82 104.26 39.98 100.93 C 38.40 100.39 38.61 98.73 39.07 97.47 C 40.63 96.89 42.11 97.49 43.48 98.24 C 52.74 103.09 63.88 104.85 73.99 101.73 C 90.52 97.04 102.32 80.15 101.37 63.05 C 101.45 58.48 99.40 54.25 99.22 49.73 Z" />
</g>
<g id="#fcea2bff">
<path fill="#fcea2b" opacity="1.00" d=" M 87.30 35.92 C 88.84 34.02 91.49 35.75 92.72 37.12 C 94.91 41.30 98.46 44.92 99.22 49.73 C 99.40 54.25 101.45 58.48 101.37 63.05 C 102.32 80.15 90.52 97.04 73.99 101.73 C 63.88 104.85 52.74 103.09 43.48 98.24 C 42.11 97.49 40.63 96.89 39.07 97.47 C 36.03 95.31 32.92 93.25 30.10 90.81 C 28.73 89.75 27.44 88.19 25.53 88.37 C 25.06 87.04 24.49 85.69 24.68 84.24 C 29.27 88.56 34.16 92.77 40.19 94.96 C 52.06 99.73 66.20 98.19 76.77 90.98 C 85.63 85.08 91.93 75.40 93.61 64.88 C 95.50 54.91 93.06 44.24 87.30 35.92 Z" />
</g>
<g id="#f1b31cff">
<path fill="#f1b31c" opacity="1.00" d=" M 92.72 37.12 C 100.27 41.53 105.93 48.88 109.39 56.84 C 115.23 70.51 113.76 87.14 105.31 99.42 C 98.27 110.05 86.44 117.33 73.78 118.86 C 53.17 121.99 31.47 108.40 25.53 88.37 C 27.44 88.19 28.73 89.75 30.10 90.81 C 32.92 93.25 36.03 95.31 39.07 97.47 C 38.61 98.73 38.40 100.39 39.98 100.93 C 45.82 104.26 52.37 106.34 59.05 107.08 C 73.54 108.72 88.56 101.91 97.02 90.05 C 105.58 78.59 107.93 62.65 102.43 49.37 C 101.35 49.35 100.28 49.49 99.22 49.73 C 98.46 44.92 94.91 41.30 92.72 37.12 Z" />
</g>
</svg>
