<?xml version="1.0" encoding="UTF-8" ?>
<!DOCTYPE svg PUBLIC "-//W3C//DTD SVG 1.1//EN" "http://www.w3.org/Graphics/SVG/1.1/DTD/svg11.dtd">
<svg width="144pt" height="144pt" viewBox="0 0 144 144" version="1.1" xmlns="http://www.w3.org/2000/svg">
<g id="#000000ff">
<path fill="#000000" opacity="1.00" d=" M 37.60 19.46 C 38.55 19.51 39.49 19.52 40.44 19.48 C 41.71 23.87 40.94 28.54 42.00 32.99 C 45.67 53.85 60.10 71.58 77.97 82.33 C 83.08 80.47 88.76 80.21 93.85 82.27 C 102.18 85.41 108.26 94.02 107.87 103.00 C 108.03 111.77 102.08 120.12 93.90 123.15 C 87.92 125.60 81.01 124.79 75.37 121.82 C 75.86 120.68 76.28 119.53 76.64 118.34 C 81.70 120.12 87.46 121.68 92.59 119.23 C 100.12 116.43 104.82 108.01 103.49 100.11 C 102.25 89.87 90.83 82.50 80.99 85.82 C 78.49 87.11 76.08 86.01 73.93 84.61 C 60.39 75.79 49.07 63.40 42.41 48.60 C 43.41 60.03 45.51 71.39 48.73 82.41 C 56.36 79.79 65.19 80.93 71.41 86.23 C 75.68 90.32 78.74 95.93 78.76 101.95 C 79.18 108.44 76.28 114.90 71.44 119.17 C 67.27 122.88 61.66 124.91 56.09 124.60 C 47.71 124.39 39.81 118.80 36.75 111.01 C 32.81 101.72 36.38 90.06 44.90 84.60 C 44.76 83.68 44.59 82.77 44.39 81.87 C 39.55 64.33 37.40 46.12 37.16 27.95 C 37.16 25.12 36.40 22.17 37.60 19.46 M 51.58 85.84 C 44.39 88.17 38.93 95.36 39.28 103.01 C 39.03 112.43 47.62 120.82 57.00 120.55 C 66.70 120.66 75.39 111.69 74.60 101.95 C 74.49 90.75 62.14 82.23 51.58 85.84 Z" />
<path fill="#000000" opacity="1.00" d=" M 44.44 23.98 C 43.72 22.34 44.79 20.03 46.84 20.61 C 56.00 21.59 65.58 24.11 72.47 30.56 C 78.35 36.44 81.56 44.45 83.42 52.43 C 83.82 53.78 83.53 55.16 83.35 56.52 C 74.50 56.36 65.43 53.96 58.13 48.82 C 50.34 42.90 46.44 33.28 44.44 23.98 M 48.87 25.03 C 50.21 31.21 52.75 37.25 56.83 42.12 C 62.35 48.58 70.97 51.12 79.08 52.29 C 78.05 46.64 75.69 41.24 72.38 36.56 C 66.98 29.17 57.65 25.96 48.87 25.03 Z" />
</g>
<g id="#b1cc33ff">
<path fill="#b1cc33" opacity="1.00" d=" M 48.87 25.03 C 57.65 25.96 66.98 29.17 72.38 36.56 C 75.69 41.24 78.05 46.64 79.08 52.29 C 70.97 51.12 62.35 48.58 56.83 42.12 C 52.75 37.25 50.21 31.21 48.87 25.03 Z" />
</g>
<g id="#e85644ff">
<path fill="#e85644" opacity="1.00" d=" M 51.58 85.84 C 62.14 82.23 74.49 90.75 74.60 101.95 C 75.39 111.69 66.70 120.66 57.00 120.55 C 47.62 120.82 39.03 112.43 39.28 103.01 C 38.93 95.36 44.39 88.17 51.58 85.84 Z" />
<path fill="#e85644" opacity="1.00" d=" M 71.41 86.23 C 72.04 85.82 73.30 85.02 73.93 84.61 C 76.08 86.01 78.49 87.11 80.99 85.82 C 90.83 82.50 102.25 89.87 103.49 100.11 C 104.82 108.01 100.12 116.43 92.59 119.23 C 87.46 121.68 81.70 120.12 76.64 118.34 C 76.28 119.53 75.86 120.68 75.37 121.82 C 74.06 120.93 72.80 119.97 71.44 119.17 C 76.28 114.90 79.18 108.44 78.76 101.95 C 78.74 95.93 75.68 90.32 71.41 86.23 Z" />
</g>
</svg>
