<?xml version="1.0" encoding="UTF-8" ?>
<!DOCTYPE svg PUBLIC "-//W3C//DTD SVG 1.1//EN" "http://www.w3.org/Graphics/SVG/1.1/DTD/svg11.dtd">
<svg width="144pt" height="144pt" viewBox="0 0 144 144" version="1.1" xmlns="http://www.w3.org/2000/svg">
<g id="#000000ff">
<path fill="#000000" opacity="1.00" d=" M 29.18 30.15 C 35.87 24.62 43.91 18.93 53.04 19.84 C 60.00 20.67 64.55 26.59 67.75 32.26 C 74.68 32.82 82.43 32.64 88.03 27.97 C 90.71 25.94 92.10 21.96 95.94 21.93 C 96.04 26.96 91.89 30.52 87.96 32.90 C 82.35 36.27 75.63 36.74 69.24 36.42 C 69.87 38.55 70.48 40.68 71.05 42.83 C 76.13 41.72 81.53 41.96 85.98 44.91 C 90.53 42.09 96.51 40.94 101.41 43.57 C 106.73 46.15 109.73 52.35 108.77 58.14 C 108.57 61.87 105.59 64.45 103.97 67.57 C 104.70 72.02 105.76 77.00 103.08 81.04 C 101.06 85.03 96.80 86.94 92.73 88.15 C 92.84 91.83 93.20 95.85 91.06 99.08 C 89.34 102.43 85.88 104.21 82.65 105.80 C 83.02 110.08 83.15 114.84 80.23 118.35 C 75.00 125.97 62.11 125.73 57.30 117.77 C 54.67 114.31 55.15 109.84 55.31 105.78 C 52.09 104.18 48.63 102.40 46.91 99.06 C 44.74 95.70 45.11 91.59 45.35 87.80 C 42.10 86.20 38.62 84.41 36.90 81.03 C 34.61 77.50 35.13 73.12 35.51 69.15 C 31.10 66.63 27.16 62.40 27.13 57.02 C 26.27 49.62 32.47 42.33 39.93 42.14 C 43.54 41.71 46.91 43.23 50.01 44.89 C 55.26 41.40 62.12 41.27 67.51 44.54 C 65.42 37.51 63.31 29.40 56.66 25.28 C 50.68 21.75 43.57 24.88 38.31 28.30 C 34.50 30.49 31.69 34.69 27.01 35.05 C 27.27 33.23 27.45 31.21 29.18 30.15 M 31.16 57.03 C 31.16 60.92 34.30 63.57 37.26 65.54 C 39.74 63.46 42.43 61.62 45.33 60.15 C 44.77 55.88 45.39 51.59 47.16 47.67 C 44.52 46.74 41.73 45.69 38.88 46.29 C 34.02 47.13 30.44 52.15 31.16 57.03 M 51.94 48.94 C 48.91 51.56 49.08 55.77 49.26 59.41 C 52.25 60.38 55.20 61.49 58.03 62.86 C 59.70 61.54 61.39 60.26 63.11 59.00 C 62.91 55.10 63.66 51.27 65.21 47.70 C 60.97 45.79 55.37 45.17 51.94 48.94 M 73.51 46.68 C 69.37 48.19 66.57 52.61 67.18 57.01 C 67.37 62.82 73.97 67.57 79.46 65.36 C 82.62 62.99 87.51 60.73 86.87 55.99 C 87.32 49.22 79.66 44.23 73.51 46.68 M 88.80 47.68 C 90.53 51.47 91.16 55.62 90.75 59.76 C 94.63 60.22 98.23 61.78 101.41 64.02 C 105.39 60.07 106.37 53.01 102.06 48.94 C 98.63 45.18 93.04 45.78 88.80 47.68 M 39.17 75.06 C 39.24 79.57 43.11 82.54 46.97 84.00 C 49.49 81.49 52.56 79.71 55.61 77.94 C 55.31 74.03 55.01 70.09 55.64 66.18 C 53.24 65.03 50.69 63.75 47.93 64.16 C 42.60 64.41 38.34 69.80 39.17 75.06 M 59.49 69.12 C 58.59 72.06 59.53 75.07 60.65 77.80 C 63.64 78.76 66.47 80.12 69.09 81.85 C 71.69 80.22 74.47 78.92 77.36 77.89 C 77.26 75.32 77.25 72.74 77.34 70.16 C 72.20 69.71 67.63 67.10 64.40 63.12 C 62.38 64.73 60.07 66.43 59.49 69.12 M 83.97 66.91 C 80.78 69.63 80.97 74.07 81.50 77.85 C 85.13 79.14 88.08 81.58 91.15 83.80 C 97.62 84.31 102.52 77.10 100.54 71.11 C 98.83 64.08 88.85 61.70 83.97 66.91 M 50.60 86.59 C 46.90 92.07 50.21 100.68 56.90 101.71 C 59.65 99.78 62.25 97.60 65.29 96.11 C 64.96 92.37 65.50 88.67 66.13 85.00 C 61.97 80.54 53.74 81.31 50.60 86.59 M 72.44 84.49 C 69.02 87.07 68.99 91.58 69.26 95.45 C 73.74 96.46 77.88 98.60 80.99 102.02 C 85.67 100.47 89.71 96.19 88.83 90.94 C 88.60 83.14 77.96 79.22 72.44 84.49 M 67.23 100.23 C 62.23 101.02 58.44 106.02 59.19 111.06 C 59.48 117.08 66.12 121.20 71.74 119.77 C 76.67 118.41 80.15 112.98 78.94 107.94 C 77.92 102.83 72.43 98.75 67.23 100.23 Z" />
</g>
<g id="#8c6bacff">
<path fill="#8c6bac" opacity="1.00" d=" M 31.16 57.03 C 30.44 52.15 34.02 47.13 38.88 46.29 C 41.73 45.69 44.52 46.74 47.16 47.67 C 45.39 51.59 44.77 55.88 45.33 60.15 C 42.43 61.62 39.74 63.46 37.26 65.54 C 34.30 63.57 31.16 60.92 31.16 57.03 Z" />
<path fill="#8c6bac" opacity="1.00" d=" M 51.94 48.94 C 55.37 45.17 60.97 45.79 65.21 47.70 C 63.66 51.27 62.91 55.10 63.11 59.00 C 61.39 60.26 59.70 61.54 58.03 62.86 C 55.20 61.49 52.25 60.38 49.26 59.41 C 49.08 55.77 48.91 51.56 51.94 48.94 Z" />
<path fill="#8c6bac" opacity="1.00" d=" M 73.51 46.68 C 79.66 44.23 87.32 49.22 86.87 55.99 C 87.51 60.73 82.62 62.99 79.46 65.36 C 73.97 67.57 67.37 62.82 67.18 57.01 C 66.57 52.61 69.37 48.19 73.51 46.68 Z" />
<path fill="#8c6bac" opacity="1.00" d=" M 88.80 47.68 C 93.04 45.78 98.63 45.18 102.06 48.94 C 106.37 53.01 105.39 60.07 101.41 64.02 C 98.23 61.78 94.63 60.22 90.75 59.76 C 91.16 55.62 90.53 51.47 88.80 47.68 Z" />
<path fill="#8c6bac" opacity="1.00" d=" M 39.17 75.06 C 38.34 69.80 42.60 64.41 47.93 64.16 C 50.69 63.75 53.24 65.03 55.64 66.18 C 55.01 70.09 55.31 74.03 55.61 77.94 C 52.56 79.71 49.49 81.49 46.97 84.00 C 43.11 82.54 39.24 79.57 39.17 75.06 Z" />
<path fill="#8c6bac" opacity="1.00" d=" M 59.49 69.12 C 60.07 66.43 62.38 64.73 64.40 63.12 C 67.63 67.10 72.20 69.71 77.34 70.16 C 77.25 72.74 77.26 75.32 77.36 77.89 C 74.47 78.92 71.69 80.22 69.09 81.85 C 66.47 80.12 63.64 78.76 60.65 77.80 C 59.53 75.07 58.59 72.06 59.49 69.12 Z" />
<path fill="#8c6bac" opacity="1.00" d=" M 83.97 66.91 C 88.85 61.70 98.83 64.08 100.54 71.11 C 102.52 77.10 97.62 84.31 91.15 83.80 C 88.08 81.58 85.13 79.14 81.50 77.85 C 80.97 74.07 80.78 69.63 83.97 66.91 Z" />
<path fill="#8c6bac" opacity="1.00" d=" M 50.60 86.59 C 53.74 81.31 61.97 80.54 66.13 85.00 C 65.50 88.67 64.96 92.37 65.29 96.11 C 62.25 97.60 59.65 99.78 56.90 101.71 C 50.21 100.68 46.90 92.07 50.60 86.59 Z" />
<path fill="#8c6bac" opacity="1.00" d=" M 72.44 84.49 C 77.96 79.22 88.60 83.14 88.83 90.94 C 89.71 96.19 85.67 100.47 80.99 102.02 C 77.88 98.60 73.74 96.46 69.26 95.45 C 68.99 91.58 69.02 87.07 72.44 84.49 Z" />
<path fill="#8c6bac" opacity="1.00" d=" M 67.23 100.23 C 72.43 98.75 77.92 102.83 78.94 107.94 C 80.15 112.98 76.67 118.41 71.74 119.77 C 66.12 121.20 59.48 117.08 59.19 111.06 C 58.44 106.02 62.23 101.02 67.23 100.23 Z" />
</g>
</svg>
