<?xml version="1.0" encoding="UTF-8" ?>
<!DOCTYPE svg PUBLIC "-//W3C//DTD SVG 1.1//EN" "http://www.w3.org/Graphics/SVG/1.1/DTD/svg11.dtd">
<svg width="144pt" height="144pt" viewBox="0 0 144 144" version="1.1" xmlns="http://www.w3.org/2000/svg">
<g id="#000000ff">
<path fill="#000000" opacity="1.00" d=" M 79.21 22.23 C 85.90 21.42 92.83 22.25 99.12 24.68 C 102.28 26.34 105.80 24.57 109.13 25.32 C 114.95 26.45 119.50 32.11 119.31 38.04 C 119.26 40.17 118.28 42.41 119.33 44.43 C 123.58 54.55 123.07 66.11 119.68 76.39 C 113.66 94.51 99.21 109.56 81.48 116.58 C 70.41 120.92 57.60 122.01 46.45 117.33 C 44.08 116.13 41.50 117.55 39.02 117.32 C 33.11 116.92 27.71 112.02 27.17 106.05 C 26.83 103.07 28.20 99.93 26.69 97.13 C 21.87 84.91 23.81 70.97 29.24 59.29 C 38.39 39.79 57.53 24.56 79.21 22.23 M 64.56 30.26 C 48.22 37.39 35.00 51.81 29.96 68.99 C 27.05 78.89 27.47 89.83 31.85 99.23 C 30.91 103.46 30.70 108.20 34.20 111.38 C 37.34 113.37 41.20 113.87 44.58 112.14 L 45.03 112.46 L 45.71 112.36 C 56.65 118.30 70.14 116.90 81.29 112.24 C 98.56 104.90 112.41 89.40 116.94 71.10 C 119.11 62.04 118.93 51.96 114.37 43.64 L 114.51 42.87 L 114.08 42.45 C 116.26 38.74 115.14 34.25 112.39 31.19 C 109.11 28.58 104.96 29.20 101.15 29.83 C 89.67 24.42 76.02 25.22 64.56 30.26 Z" />
</g>
<g id="#fcea2bff">
<path fill="#fcea2b" opacity="1.00" d=" M 64.56 30.26 C 76.02 25.22 89.67 24.42 101.15 29.83 C 104.96 29.20 109.11 28.58 112.39 31.19 C 110.88 32.81 109.38 34.43 107.88 36.05 C 109.86 38.27 111.91 40.42 114.08 42.45 L 114.51 42.87 L 114.37 43.64 C 112.32 56.67 109.09 69.76 102.06 81.08 C 94.56 93.81 82.46 103.80 68.33 108.26 C 61.04 110.85 53.28 111.22 45.71 112.36 L 45.03 112.46 L 44.58 112.14 C 42.29 110.45 39.98 108.79 37.66 107.16 C 36.50 108.57 35.35 109.97 34.20 111.38 C 30.70 108.20 30.91 103.46 31.85 99.23 C 27.47 89.83 27.05 78.89 29.96 68.99 C 35.00 51.81 48.22 37.39 64.56 30.26 Z" />
</g>
<g id="#f4aa41ff">
<path fill="#f4aa41" opacity="1.00" d=" M 107.88 36.05 C 109.38 34.43 110.88 32.81 112.39 31.19 C 115.14 34.25 116.26 38.74 114.08 42.45 C 111.91 40.42 109.86 38.27 107.88 36.05 Z" />
<path fill="#f4aa41" opacity="1.00" d=" M 114.37 43.64 C 118.93 51.96 119.11 62.04 116.94 71.10 C 112.41 89.40 98.56 104.90 81.29 112.24 C 70.14 116.90 56.65 118.30 45.71 112.36 C 53.28 111.22 61.04 110.85 68.33 108.26 C 82.46 103.80 94.56 93.81 102.06 81.08 C 109.09 69.76 112.32 56.67 114.37 43.64 Z" />
<path fill="#f4aa41" opacity="1.00" d=" M 34.20 111.38 C 35.35 109.97 36.50 108.57 37.66 107.16 C 39.98 108.79 42.29 110.45 44.58 112.14 C 41.20 113.87 37.34 113.37 34.20 111.38 Z" />
</g>
</svg>
