<?xml version="1.0" encoding="UTF-8" ?>
<!DOCTYPE svg PUBLIC "-//W3C//DTD SVG 1.1//EN" "http://www.w3.org/Graphics/SVG/1.1/DTD/svg11.dtd">
<svg width="144pt" height="144pt" viewBox="0 0 144 144" version="1.1" xmlns="http://www.w3.org/2000/svg">
<g id="#000000ff">
<path fill="#000000" opacity="1.00" d=" M 80.24 16.15 C 80.56 14.69 82.45 15.12 83.48 15.41 C 84.64 17.94 83.86 20.65 83.85 23.28 C 85.52 23.54 88.57 22.41 89.54 23.77 L 89.24 23.90 C 87.38 23.88 85.52 23.87 83.66 23.83 C 83.77 25.76 84.97 29.76 82.12 29.87 C 79.92 30.65 80.57 27.76 79.28 27.01 C 73.42 35.06 64.32 41.85 53.98 41.84 C 51.67 41.94 49.36 41.79 47.06 41.76 C 34.35 52.13 28.54 69.01 28.14 85.01 C 27.69 95.83 30.12 107.83 38.53 115.33 C 43.53 119.74 50.35 122.53 57.08 121.75 C 60.30 121.52 62.98 119.35 64.93 116.93 C 68.19 112.75 70.32 107.76 74.03 103.94 C 78.62 99.03 84.71 96.00 90.19 92.24 C 99.45 86.06 106.47 76.75 110.24 66.31 C 112.56 58.84 112.81 50.15 108.70 43.24 C 105.45 37.31 100.04 32.97 94.30 29.59 C 92.31 28.68 93.83 26.59 94.96 25.73 C 104.80 30.21 113.15 39.07 115.43 49.84 C 118.01 65.30 109.75 80.43 98.64 90.63 C 91.29 97.80 80.65 101.05 74.65 109.68 C 70.84 115.38 67.86 122.63 60.90 125.14 C 52.10 127.72 42.45 124.08 35.74 118.23 C 27.39 110.63 24.04 98.93 24.14 87.92 C 23.83 71.34 29.08 54.02 40.83 41.97 L 41.32 40.82 C 38.88 39.85 33.16 40.31 34.32 36.27 C 39.14 29.19 45.63 22.82 53.79 19.78 C 62.07 17.24 71.17 18.07 79.31 20.72 C 80.64 19.66 79.85 17.62 80.24 16.15 M 54.94 23.62 C 48.91 25.86 44.09 30.38 40.00 35.22 L 39.68 36.33 C 46.97 38.14 55.00 38.86 62.16 36.21 C 67.69 33.74 72.37 29.56 76.01 24.79 C 75.93 24.50 75.75 23.92 75.66 23.63 C 68.89 22.30 61.63 21.38 54.94 23.62 Z" />
</g>
<g id="#b1cc33ff">
<path fill="#b1cc33" opacity="1.00" d=" M 54.94 23.62 C 61.63 21.38 68.89 22.30 75.66 23.63 C 75.75 23.92 75.93 24.50 76.01 24.79 C 72.37 29.56 67.69 33.74 62.16 36.21 C 55.00 38.86 46.97 38.14 39.68 36.33 L 40.00 35.22 C 44.09 30.38 48.91 25.86 54.94 23.62 Z" />
</g>
<g id="#fcea2bff">
<path fill="#fcea2b" opacity="1.00" d=" M 82.12 29.87 C 84.97 29.76 83.77 25.76 83.66 23.83 C 85.52 23.87 87.38 23.88 89.24 23.90 C 89.62 25.10 88.85 26.96 90.08 27.87 C 95.87 32.97 100.40 40.16 100.39 48.08 C 101.16 60.32 94.54 71.72 86.22 80.21 C 79.68 87.28 70.03 90.40 63.64 97.65 C 58.60 102.42 56.89 109.93 51.07 113.97 C 47.30 116.47 42.73 115.46 38.53 115.33 C 30.12 107.83 27.69 95.83 28.14 85.01 C 28.54 69.01 34.35 52.13 47.06 41.76 C 49.36 41.79 51.67 41.94 53.98 41.84 C 64.32 41.85 73.42 35.06 79.28 27.01 C 80.57 27.76 79.92 30.65 82.12 29.87 Z" />
</g>
<g id="#f1b31cff">
<path fill="#f1b31c" opacity="1.00" d=" M 89.24 23.90 L 89.54 23.77 C 91.29 24.34 93.37 24.61 94.96 25.73 C 93.83 26.59 92.31 28.68 94.30 29.59 C 100.04 32.97 105.45 37.31 108.70 43.24 C 112.81 50.15 112.56 58.84 110.24 66.31 C 106.47 76.75 99.45 86.06 90.19 92.24 C 84.71 96.00 78.62 99.03 74.03 103.94 C 70.32 107.76 68.19 112.75 64.93 116.93 C 62.98 119.35 60.30 121.52 57.08 121.75 C 50.35 122.53 43.53 119.74 38.53 115.33 C 42.73 115.46 47.30 116.47 51.07 113.97 C 56.89 109.93 58.60 102.42 63.64 97.65 C 70.03 90.40 79.68 87.28 86.22 80.21 C 94.54 71.72 101.16 60.32 100.39 48.08 C 100.40 40.16 95.87 32.97 90.08 27.87 C 88.85 26.96 89.62 25.10 89.24 23.90 Z" />
</g>
</svg>
