<?xml version="1.0" encoding="UTF-8" ?>
<!DOCTYPE svg PUBLIC "-//W3C//DTD SVG 1.1//EN" "http://www.w3.org/Graphics/SVG/1.1/DTD/svg11.dtd">
<svg width="144pt" height="144pt" viewBox="0 0 144 144" version="1.1" xmlns="http://www.w3.org/2000/svg">
<g id="#000000ff">
<path fill="#000000" opacity="1.00" d=" M 64.08 13.46 C 65.41 13.47 67.12 12.57 68.06 13.96 C 72.44 18.99 74.87 25.83 74.62 32.49 C 73.58 32.54 72.55 32.59 71.51 32.64 C 70.41 28.80 69.90 24.74 68.08 21.15 C 66.80 18.55 64.47 16.45 64.08 13.46 Z" />
<path fill="#000000" opacity="1.00" d=" M 28.48 26.78 C 40.84 24.07 55.41 23.62 65.41 32.67 C 65.17 33.77 64.76 34.81 64.20 35.79 C 60.81 34.89 58.29 32.21 55.03 30.99 C 48.09 28.27 40.45 29.08 33.21 29.82 C 34.67 31.99 36.38 34.03 37.54 36.40 C 38.29 37.82 36.44 38.66 35.62 39.41 C 32.75 36.83 30.66 33.50 28.75 30.19 C 28.10 29.16 28.48 27.91 28.48 26.78 Z" />
<path fill="#000000" opacity="1.00" d=" M 82.13 33.26 C 91.66 25.06 105.23 24.68 116.91 27.44 C 118.23 27.59 118.83 28.87 119.64 29.73 C 117.22 33.64 114.63 37.44 111.67 40.95 C 110.72 40.36 109.85 39.68 109.05 38.92 C 109.83 35.80 112.36 33.50 114.01 30.82 C 107.69 30.09 101.19 29.56 94.93 31.04 C 90.40 32.10 86.89 35.38 82.62 37.06 C 82.44 35.80 82.27 34.53 82.13 33.26 Z" />
<path fill="#000000" opacity="1.00" d=" M 40.57 44.55 C 49.07 40.43 59.24 40.34 67.89 44.09 C 71.18 45.67 74.89 45.44 78.15 43.91 C 87.06 40.08 97.59 40.63 106.14 45.15 C 112.46 48.48 117.51 54.14 119.93 60.87 C 124.49 71.97 124.76 84.80 120.10 95.91 C 113.69 111.76 99.13 123.44 82.89 128.12 C 78.09 129.47 72.87 130.72 67.97 129.14 C 52.57 124.58 38.72 114.49 30.16 100.84 C 24.63 91.79 20.97 80.74 23.62 70.14 C 25.72 59.96 30.31 48.85 40.57 44.55 M 34.73 53.79 C 29.84 60.50 27.47 68.81 26.70 77.00 C 26.85 85.37 30.05 93.48 34.68 100.37 C 42.75 112.20 55.05 121.01 68.74 125.17 C 72.17 126.29 75.98 125.90 79.30 124.60 C 97.22 120.92 113.29 107.07 118.07 89.17 C 120.83 79.23 119.25 68.44 114.76 59.26 C 108.72 47.43 92.81 41.98 80.77 47.43 C 78.21 48.08 75.73 49.23 73.04 49.27 C 69.91 49.40 67.04 47.99 64.16 46.96 C 54.17 43.32 41.97 45.87 34.73 53.79 Z" />
<path fill="#000000" opacity="1.00" d=" M 72.86 54.87 C 73.41 54.77 74.53 54.56 75.09 54.45 C 83.99 62.22 87.36 74.56 87.20 86.04 C 86.82 93.33 85.75 100.64 83.39 107.57 C 82.37 107.57 81.35 107.56 80.33 107.55 C 80.00 102.55 82.32 97.87 82.58 92.90 C 84.20 81.81 82.72 69.46 75.39 60.55 C 74.17 58.80 71.59 57.31 72.86 54.87 Z" />
</g>
<g id="#b1cc33ff">
<path fill="#b1cc33" opacity="1.00" d=" M 33.21 29.82 C 40.45 29.08 48.09 28.27 55.03 30.99 C 58.29 32.21 60.81 34.89 64.20 35.79 C 64.76 34.81 65.17 33.77 65.41 32.67 C 67.66 34.58 69.96 36.86 73.00 37.34 C 76.43 37.19 79.30 34.99 82.13 33.26 C 82.27 34.53 82.44 35.80 82.62 37.06 C 86.89 35.38 90.40 32.10 94.93 31.04 C 101.19 29.56 107.69 30.09 114.01 30.82 C 112.36 33.50 109.83 35.80 109.05 38.92 C 109.85 39.68 110.72 40.36 111.67 40.95 C 110.08 42.46 108.52 44.00 106.97 45.55 L 106.14 45.15 C 97.59 40.63 87.06 40.08 78.15 43.91 C 74.89 45.44 71.18 45.67 67.89 44.09 C 59.24 40.34 49.07 40.43 40.57 44.55 C 38.90 42.86 37.25 41.14 35.62 39.41 C 36.44 38.66 38.29 37.82 37.54 36.40 C 36.38 34.03 34.67 31.99 33.21 29.82 Z" />
</g>
<g id="#ffa7c0ff">
<path fill="#ffa7c0" opacity="1.00" d=" M 34.73 53.79 C 41.97 45.87 54.17 43.32 64.16 46.96 C 67.04 47.99 69.91 49.40 73.04 49.27 C 75.73 49.23 78.21 48.08 80.77 47.43 C 88.51 47.70 97.06 47.37 103.55 52.33 C 110.53 57.46 112.57 66.80 111.93 75.01 C 110.78 89.06 104.26 102.43 94.72 112.70 C 90.35 117.58 84.67 120.95 79.30 124.60 C 75.98 125.90 72.17 126.29 68.74 125.17 C 55.05 121.01 42.75 112.20 34.68 100.37 C 30.05 93.48 26.85 85.37 26.70 77.00 C 27.47 68.81 29.84 60.50 34.73 53.79 M 72.86 54.87 C 71.59 57.31 74.17 58.80 75.39 60.55 C 82.72 69.46 84.20 81.81 82.58 92.90 C 82.32 97.87 80.00 102.55 80.33 107.55 C 81.35 107.56 82.37 107.57 83.39 107.57 C 85.75 100.64 86.82 93.33 87.20 86.04 C 87.36 74.56 83.99 62.22 75.09 54.45 C 74.53 54.56 73.41 54.77 72.86 54.87 M 66.98 59.95 C 66.08 63.19 69.06 65.08 70.66 67.43 C 72.52 69.84 72.82 73.18 75.01 75.36 C 78.66 75.00 77.14 71.09 76.17 68.89 C 74.22 65.10 71.71 60.42 66.98 59.95 Z" />
</g>
<g id="#e67a94ff">
<path fill="#e67a94" opacity="1.00" d=" M 80.77 47.43 C 92.81 41.98 108.72 47.43 114.76 59.26 C 119.25 68.44 120.83 79.23 118.07 89.17 C 113.29 107.07 97.22 120.92 79.30 124.60 C 84.67 120.95 90.35 117.58 94.72 112.70 C 104.26 102.43 110.78 89.06 111.93 75.01 C 112.57 66.80 110.53 57.46 103.55 52.33 C 97.06 47.37 88.51 47.70 80.77 47.43 Z" />
<path fill="#e67a94" opacity="1.00" d=" M 66.98 59.95 C 71.71 60.42 74.22 65.10 76.17 68.89 C 77.14 71.09 78.66 75.00 75.01 75.36 C 72.82 73.18 72.52 69.84 70.66 67.43 C 69.06 65.08 66.08 63.19 66.98 59.95 Z" />
</g>
</svg>
