<?xml version="1.0" encoding="UTF-8" ?>
<!DOCTYPE svg PUBLIC "-//W3C//DTD SVG 1.1//EN" "http://www.w3.org/Graphics/SVG/1.1/DTD/svg11.dtd">
<svg width="144pt" height="144pt" viewBox="0 0 144 144" version="1.1" xmlns="http://www.w3.org/2000/svg">
<g id="#000000ff">
<path fill="#000000" opacity="1.00" d=" M 48.61 36.12 C 54.85 33.56 62.45 35.01 67.49 39.47 C 78.61 50.60 95.37 51.70 108.44 59.55 C 119.25 65.86 125.67 78.65 124.64 91.08 C 123.92 106.21 111.89 119.87 96.98 122.53 C 85.22 125.08 72.29 120.65 64.43 111.56 C 59.15 105.99 57.04 98.44 54.34 91.46 C 51.11 82.70 48.27 73.25 41.48 66.48 C 36.87 61.63 35.09 54.10 37.44 47.79 C 39.02 47.23 41.38 47.89 40.77 50.01 C 39.87 54.78 40.87 60.06 44.38 63.59 C 54.02 73.52 56.57 87.62 61.91 99.91 C 66.56 112.21 79.81 120.32 92.87 119.15 C 103.67 118.14 113.72 111.15 118.05 101.14 C 124.48 87.53 118.89 69.09 105.10 62.46 C 93.96 56.05 80.61 54.30 69.98 46.85 C 66.11 44.18 63.08 39.80 58.06 39.25 C 54.84 37.98 51.68 40.07 48.44 39.60 C 48.03 38.46 47.67 37.11 48.61 36.12 Z" />
<path fill="#000000" opacity="1.00" d=" M 22.06 40.96 C 25.98 37.35 31.79 35.47 36.96 37.28 C 39.05 37.67 40.73 39.13 42.73 39.70 C 43.81 41.04 47.05 42.88 44.70 44.63 C 43.03 46.42 41.34 43.65 39.84 42.93 C 35.57 39.91 29.35 39.73 25.42 43.42 C 24.27 44.23 22.57 46.53 21.23 44.72 C 19.46 43.72 20.92 41.73 22.06 40.96 Z" />
</g>
<g id="#b1cc33ff">
<path fill="#b1cc33" opacity="1.00" d=" M 42.73 39.70 C 44.43 38.11 46.48 37.01 48.61 36.12 C 47.67 37.11 48.03 38.46 48.44 39.60 C 51.68 40.07 54.84 37.98 58.06 39.25 C 63.08 39.80 66.11 44.18 69.98 46.85 C 80.61 54.30 93.96 56.05 105.10 62.46 C 106.18 66.20 108.82 69.22 110.13 72.87 C 112.45 78.92 114.01 85.52 113.00 92.02 C 111.36 103.70 102.92 113.53 92.87 119.15 C 79.81 120.32 66.56 112.21 61.91 99.91 C 56.57 87.62 54.02 73.52 44.38 63.59 C 40.87 60.06 39.87 54.78 40.77 50.01 C 41.38 47.89 39.02 47.23 37.44 47.79 C 37.81 46.00 38.94 44.48 39.84 42.93 C 41.34 43.65 43.03 46.42 44.70 44.63 C 47.05 42.88 43.81 41.04 42.73 39.70 Z" />
</g>
<g id="#5c9e31ff">
<path fill="#5c9e31" opacity="1.00" d=" M 105.10 62.46 C 118.89 69.09 124.48 87.53 118.05 101.14 C 113.72 111.15 103.67 118.14 92.87 119.15 C 102.92 113.53 111.36 103.70 113.00 92.02 C 114.01 85.52 112.45 78.92 110.13 72.87 C 108.82 69.22 106.18 66.20 105.10 62.46 Z" />
</g>
</svg>
