<?xml version="1.0" encoding="UTF-8" ?>
<!DOCTYPE svg PUBLIC "-//W3C//DTD SVG 1.1//EN" "http://www.w3.org/Graphics/SVG/1.1/DTD/svg11.dtd">
<svg width="144pt" height="144pt" viewBox="0 0 144 144" version="1.1" xmlns="http://www.w3.org/2000/svg">
<g id="#000000ff">
<path fill="#000000" opacity="1.00" d=" M 63.22 20.90 C 64.64 17.61 66.47 14.50 68.94 11.89 C 72.81 15.18 75.49 19.57 77.26 24.29 C 82.00 20.75 86.99 15.89 93.37 16.40 C 93.43 18.68 93.80 21.06 92.77 23.20 C 94.15 26.62 92.64 30.21 91.48 33.45 C 89.15 39.31 84.83 44.31 79.43 47.55 C 87.55 48.42 95.91 51.20 101.45 57.48 C 103.14 58.76 102.88 60.91 102.03 62.61 C 98.00 60.54 95.19 56.75 91.07 54.84 C 85.63 52.16 79.42 51.52 73.44 51.98 C 64.36 52.26 54.49 53.23 47.27 59.31 C 41.80 63.79 39.76 71.21 40.30 78.05 C 40.48 82.89 42.48 87.46 42.48 92.32 C 41.23 91.74 39.20 91.98 38.78 90.30 C 35.48 81.06 34.78 69.95 40.20 61.36 C 45.26 53.32 54.81 50.00 63.72 48.50 C 52.15 42.64 45.60 28.59 48.72 15.97 C 54.88 16.89 60.09 20.62 64.43 24.89 C 64.04 23.56 63.64 22.23 63.22 20.90 M 65.15 22.50 C 65.07 23.60 65.00 24.69 64.95 25.79 C 67.52 28.83 69.30 32.42 70.69 36.14 C 71.97 33.23 73.36 30.37 74.93 27.60 C 73.80 23.80 72.29 20.03 69.67 17.00 C 67.43 18.02 66.94 20.91 65.15 22.50 M 51.20 19.71 C 49.88 31.51 57.38 43.42 68.61 47.27 C 69.82 35.49 62.42 23.59 51.20 19.71 M 73.40 47.02 C 79.57 43.99 85.12 39.32 87.93 32.90 C 88.31 31.93 88.70 30.95 89.09 29.98 C 89.41 28.16 89.59 26.33 89.77 24.49 L 90.76 24.33 C 90.57 22.93 90.37 21.52 90.18 20.12 C 79.15 23.52 71.53 35.58 73.40 47.02 Z" />
<path fill="#000000" opacity="1.00" d=" M 102.73 64.02 C 103.94 64.14 105.14 64.31 106.34 64.53 C 110.42 75.90 108.75 88.75 103.62 99.51 C 98.42 110.32 90.31 119.72 80.44 126.53 C 77.12 128.60 73.22 131.09 69.15 129.84 C 63.47 128.19 59.28 123.72 55.42 119.49 C 49.30 112.40 44.20 104.41 40.44 95.83 C 41.00 95.20 42.12 93.93 42.68 93.30 C 43.09 93.70 43.90 94.50 44.31 94.90 C 49.36 104.97 55.49 114.73 63.93 122.31 C 66.64 124.42 70.03 126.88 73.64 125.54 C 77.46 124.08 80.66 121.40 83.78 118.82 C 93.77 110.01 101.69 98.23 104.04 84.96 C 105.36 77.96 103.79 70.93 102.73 64.02 Z" />
<path fill="#000000" opacity="1.00" d=" M 48.43 65.36 C 49.77 65.40 51.11 65.44 52.46 65.49 C 52.45 67.84 52.44 70.19 52.42 72.54 C 51.07 72.57 49.72 72.57 48.37 72.55 C 48.38 70.15 48.40 67.75 48.43 65.36 Z" />
<path fill="#000000" opacity="1.00" d=" M 64.50 65.42 C 65.80 65.40 67.10 65.40 68.40 65.41 C 68.41 67.78 68.43 70.15 68.44 72.52 C 67.08 72.56 65.72 72.58 64.36 72.57 C 64.38 70.19 64.42 67.80 64.50 65.42 Z" />
<path fill="#000000" opacity="1.00" d=" M 78.59 65.04 C 79.87 65.20 81.15 65.38 82.43 65.57 C 82.41 67.90 82.41 70.24 82.40 72.57 C 81.02 72.58 79.65 72.57 78.28 72.54 C 78.34 70.36 78.41 68.18 78.53 66.01 L 78.59 65.04 Z" />
<path fill="#000000" opacity="1.00" d=" M 92.41 65.32 C 93.75 65.35 95.09 65.40 96.42 65.48 C 96.44 67.82 96.44 70.17 96.42 72.51 C 95.09 72.58 93.77 72.63 92.44 72.67 C 92.38 70.22 92.37 67.77 92.41 65.32 Z" />
<path fill="#000000" opacity="1.00" d=" M 54.58 81.01 C 55.88 81.21 57.18 81.41 58.47 81.62 C 58.45 83.94 58.44 86.27 58.41 88.59 C 57.03 88.59 55.64 88.56 54.25 88.51 C 54.32 86.35 54.40 84.18 54.53 82.02 L 54.58 81.01 Z" />
<path fill="#000000" opacity="1.00" d=" M 70.44 81.82 C 71.52 80.77 73.14 81.50 74.46 81.46 C 74.45 83.82 74.45 86.19 74.43 88.56 C 73.07 88.58 71.70 88.59 70.34 88.59 C 70.34 86.33 70.34 84.07 70.44 81.82 Z" />
<path fill="#000000" opacity="1.00" d=" M 86.39 81.56 C 87.72 81.41 89.05 81.29 90.39 81.20 C 90.48 83.66 90.45 86.11 90.44 88.57 C 89.08 88.59 87.73 88.59 86.38 88.57 C 86.38 86.23 86.39 83.90 86.39 81.56 Z" />
<path fill="#000000" opacity="1.00" d=" M 62.15 100.29 C 63.44 99.38 64.86 99.09 66.42 99.43 C 66.41 101.80 66.41 104.18 66.39 106.56 C 64.96 106.58 63.52 106.57 62.09 106.56 C 62.42 104.49 62.78 102.43 63.17 100.38 C 63.03 100.37 62.76 100.35 62.62 100.33 L 62.15 100.29 Z" />
<path fill="#000000" opacity="1.00" d=" M 78.41 99.36 C 79.70 99.36 81.00 99.41 82.29 99.54 C 82.37 101.88 82.41 104.23 82.44 106.57 C 81.08 106.59 79.72 106.58 78.36 106.56 C 78.37 104.16 78.39 101.76 78.41 99.36 Z" />
</g>
<g id="#196748ff">
<path fill="#196748" opacity="1.00" d=" M 65.15 22.50 C 66.94 20.91 67.43 18.02 69.67 17.00 C 72.29 20.03 73.80 23.80 74.93 27.60 C 73.36 30.37 71.97 33.23 70.69 36.14 C 69.30 32.42 67.52 28.83 64.95 25.79 C 65.00 24.69 65.07 23.60 65.15 22.50 Z" />
</g>
<g id="#b1cc33ff">
<path fill="#b1cc33" opacity="1.00" d=" M 51.20 19.71 C 62.42 23.59 69.82 35.49 68.61 47.27 C 57.38 43.42 49.88 31.51 51.20 19.71 Z" />
<path fill="#b1cc33" opacity="1.00" d=" M 73.40 47.02 C 71.53 35.58 79.15 23.52 90.18 20.12 C 90.37 21.52 90.57 22.93 90.76 24.33 L 89.77 24.49 C 89.59 26.33 89.41 28.16 89.09 29.98 C 88.70 30.95 88.31 31.93 87.93 32.90 C 85.12 39.32 79.57 43.99 73.40 47.02 Z" />
</g>
<g id="#ea5a47ff">
<path fill="#ea5a47" opacity="1.00" d=" M 47.27 59.31 C 54.49 53.23 64.36 52.26 73.44 51.98 C 82.38 59.21 89.97 69.29 90.39 81.20 C 89.05 81.29 87.72 81.41 86.39 81.56 C 85.60 83.70 84.01 86.30 85.64 88.45 C 87.02 89.58 88.79 90.09 90.38 90.88 C 89.47 95.71 87.79 100.34 85.75 104.81 C 84.62 103.04 83.50 101.26 82.29 99.54 C 81.00 99.41 79.70 99.36 78.41 99.36 C 77.47 101.72 75.83 104.83 78.10 106.98 C 79.65 107.73 81.37 108.07 83.01 108.56 C 78.03 114.81 71.34 119.40 63.93 122.31 C 55.49 114.73 49.36 104.97 44.31 94.90 C 43.90 94.50 43.09 93.70 42.68 93.30 C 42.63 93.05 42.53 92.56 42.48 92.32 C 42.48 87.46 40.48 82.89 40.30 78.05 C 39.76 71.21 41.80 63.79 47.27 59.31 M 48.43 65.36 C 47.75 67.62 45.91 70.22 47.65 72.47 C 49.32 75.29 54.14 74.03 54.67 70.94 C 55.14 68.82 53.39 67.19 52.46 65.49 C 51.11 65.44 49.77 65.40 48.43 65.36 M 64.50 65.42 C 63.84 67.04 63.16 68.65 62.47 70.25 C 63.13 71.32 63.74 72.43 64.52 73.41 C 66.70 74.95 70.28 73.53 70.68 70.86 C 71.08 68.73 69.35 67.11 68.40 65.41 C 67.10 65.40 65.80 65.40 64.50 65.42 M 78.59 65.04 L 78.53 66.01 C 77.80 67.84 75.91 69.77 77.28 71.76 C 78.48 75.30 84.13 74.37 84.67 70.89 C 85.13 68.79 83.40 67.21 82.43 65.57 C 81.15 65.38 79.87 65.20 78.59 65.04 M 54.58 81.01 L 54.53 82.02 C 53.80 83.84 51.96 85.77 53.27 87.75 C 54.47 91.34 60.18 90.33 60.69 86.84 C 61.10 84.78 59.41 83.24 58.47 81.62 C 57.18 81.41 55.88 81.21 54.58 81.01 M 70.44 81.82 C 69.79 83.75 68.04 85.80 69.31 87.83 C 70.48 91.33 76.18 90.33 76.68 86.91 C 77.12 84.78 75.37 83.17 74.46 81.46 C 73.14 81.50 71.52 80.77 70.44 81.82 M 62.15 100.29 L 62.62 100.33 C 60.58 101.26 60.33 104.70 61.64 106.43 C 63.21 109.28 68.24 108.08 68.66 104.95 C 69.17 102.79 67.35 101.16 66.42 99.43 C 64.86 99.09 63.44 99.38 62.15 100.29 Z" />
</g>
<g id="#d22f27ff">
<path fill="#d22f27" opacity="1.00" d=" M 73.44 51.98 C 79.42 51.52 85.63 52.16 91.07 54.84 C 95.19 56.75 98.00 60.54 102.03 62.61 C 102.21 62.96 102.56 63.66 102.73 64.02 C 103.79 70.93 105.36 77.96 104.04 84.96 C 101.69 98.23 93.77 110.01 83.78 118.82 C 80.66 121.40 77.46 124.08 73.64 125.54 C 70.03 126.88 66.64 124.42 63.93 122.31 C 71.34 119.40 78.03 114.81 83.01 108.56 C 81.37 108.07 79.65 107.73 78.10 106.98 C 75.83 104.83 77.47 101.72 78.41 99.36 C 78.39 101.76 78.37 104.16 78.36 106.56 C 79.72 106.58 81.08 106.59 82.44 106.57 C 82.41 104.23 82.37 101.88 82.29 99.54 C 83.50 101.26 84.62 103.04 85.75 104.81 C 87.79 100.34 89.47 95.71 90.38 90.88 C 88.79 90.09 87.02 89.58 85.64 88.45 C 84.01 86.30 85.60 83.70 86.39 81.56 C 86.39 83.90 86.38 86.23 86.38 88.57 C 87.73 88.59 89.08 88.59 90.44 88.57 C 90.45 86.11 90.48 83.66 90.39 81.20 C 89.97 69.29 82.38 59.21 73.44 51.98 M 92.41 65.32 C 92.37 67.77 92.38 70.22 92.44 72.67 C 93.77 72.63 95.09 72.58 96.42 72.51 C 96.44 70.17 96.44 67.82 96.42 65.48 C 95.09 65.40 93.75 65.35 92.41 65.32 Z" />
<path fill="#d22f27" opacity="1.00" d=" M 47.65 72.47 C 45.91 70.22 47.75 67.62 48.43 65.36 C 48.40 67.75 48.38 70.15 48.37 72.55 C 49.72 72.57 51.07 72.57 52.42 72.54 C 52.44 70.19 52.45 67.84 52.46 65.49 C 53.39 67.19 55.14 68.82 54.67 70.94 C 54.14 74.03 49.32 75.29 47.65 72.47 Z" />
<path fill="#d22f27" opacity="1.00" d=" M 62.47 70.25 C 63.16 68.65 63.84 67.04 64.50 65.42 C 64.42 67.80 64.38 70.19 64.36 72.57 C 65.72 72.58 67.08 72.56 68.44 72.52 C 68.43 70.15 68.41 67.78 68.40 65.41 C 69.35 67.11 71.08 68.73 70.68 70.86 C 70.28 73.53 66.70 74.95 64.52 73.41 C 63.74 72.43 63.13 71.32 62.47 70.25 Z" />
<path fill="#d22f27" opacity="1.00" d=" M 77.28 71.76 C 75.91 69.77 77.80 67.84 78.53 66.01 C 78.41 68.18 78.34 70.36 78.28 72.54 C 79.65 72.57 81.02 72.58 82.40 72.57 C 82.41 70.24 82.41 67.90 82.43 65.57 C 83.40 67.21 85.13 68.79 84.67 70.89 C 84.13 74.37 78.48 75.30 77.28 71.76 Z" />
<path fill="#d22f27" opacity="1.00" d=" M 53.27 87.75 C 51.96 85.77 53.80 83.84 54.53 82.02 C 54.40 84.18 54.32 86.35 54.25 88.51 C 55.64 88.56 57.03 88.59 58.41 88.59 C 58.44 86.27 58.45 83.94 58.47 81.62 C 59.41 83.24 61.10 84.78 60.69 86.84 C 60.18 90.33 54.47 91.34 53.27 87.75 Z" />
<path fill="#d22f27" opacity="1.00" d=" M 69.31 87.83 C 68.04 85.80 69.79 83.75 70.44 81.82 C 70.34 84.07 70.34 86.33 70.34 88.59 C 71.70 88.59 73.07 88.58 74.43 88.56 C 74.45 86.19 74.45 83.82 74.46 81.46 C 75.37 83.17 77.12 84.78 76.68 86.91 C 76.18 90.33 70.48 91.33 69.31 87.83 Z" />
<path fill="#d22f27" opacity="1.00" d=" M 61.64 106.43 C 60.33 104.70 60.58 101.26 62.62 100.33 C 62.76 100.35 63.03 100.37 63.17 100.38 C 62.78 102.43 62.42 104.49 62.09 106.56 C 63.52 106.57 64.96 106.58 66.39 106.56 C 66.41 104.18 66.41 101.80 66.42 99.43 C 67.35 101.16 69.17 102.79 68.66 104.95 C 68.24 108.08 63.21 109.28 61.64 106.43 Z" />
</g>
</svg>
