<?xml version="1.0" encoding="UTF-8" ?>
<!DOCTYPE svg PUBLIC "-//W3C//DTD SVG 1.1//EN" "http://www.w3.org/Graphics/SVG/1.1/DTD/svg11.dtd">
<svg width="144pt" height="144pt" viewBox="0 0 144 144" version="1.1" xmlns="http://www.w3.org/2000/svg">
<g id="#000000ff">
<path fill="#000000" opacity="1.00" d=" M 29.59 32.61 C 31.42 31.15 33.14 33.48 34.43 34.60 C 59.60 59.76 84.76 84.95 109.95 110.10 C 111.20 111.48 113.84 113.73 111.46 115.35 C 103.82 122.94 93.95 128.24 83.46 130.61 C 68.67 133.78 52.63 131.35 39.81 123.17 C 26.07 114.60 16.12 100.12 13.38 84.12 C 9.93 65.69 16.11 45.67 29.59 32.61 M 24.60 102.39 C 34.23 118.16 52.44 128.40 70.98 127.90 C 84.47 128.17 97.64 122.57 107.62 113.65 C 106.79 112.80 105.95 111.96 105.12 111.13 C 99.10 116.55 91.92 120.75 84.05 122.80 C 69.96 126.75 54.24 124.09 42.18 115.83 C 30.21 107.79 21.96 94.42 20.30 80.09 C 18.31 65.47 23.30 50.14 33.38 39.39 C 32.59 38.60 31.80 37.79 30.95 37.06 C 14.32 54.04 11.81 82.46 24.60 102.39 M 24.11 72.98 C 23.70 83.71 27.42 94.47 34.12 102.84 C 42.68 113.67 56.20 120.40 70.02 120.48 C 81.83 120.73 93.57 116.17 102.28 108.21 C 80.20 86.22 58.25 64.10 36.13 42.14 C 28.82 50.68 23.93 61.60 24.11 72.98 Z" />
<path fill="#000000" opacity="1.00" d=" M 35.74 58.96 C 36.56 55.99 38.65 53.68 41.85 53.30 C 41.59 56.64 39.22 59.25 35.74 58.96 Z" />
<path fill="#000000" opacity="1.00" d=" M 33.52 84.82 C 32.09 81.37 35.83 79.25 38.66 78.74 C 38.27 81.67 36.60 84.24 33.52 84.82 Z" />
<path fill="#000000" opacity="1.00" d=" M 48.57 84.71 C 49.07 81.51 51.39 78.54 54.95 79.38 C 53.84 82.23 51.79 84.50 48.57 84.71 Z" />
<path fill="#000000" opacity="1.00" d=" M 60.60 96.73 C 61.11 93.54 63.29 90.94 66.74 91.01 C 66.18 94.24 63.91 96.51 60.60 96.73 Z" />
<path fill="#000000" opacity="1.00" d=" M 41.71 103.14 C 41.92 99.82 44.30 97.43 47.65 97.23 C 47.14 100.39 44.94 102.79 41.71 103.14 Z" />
<path fill="#000000" opacity="1.00" d=" M 86.21 109.66 C 86.32 106.26 88.75 103.76 92.18 103.85 C 91.58 106.94 89.32 109.10 86.21 109.66 Z" />
<path fill="#000000" opacity="1.00" d=" M 61.43 113.10 C 60.27 109.57 63.49 106.42 67.00 107.38 C 65.87 109.92 63.92 111.88 61.43 113.10 Z" />
</g>
<g id="#b1cc33ff">
<path fill="#b1cc33" opacity="1.00" d=" M 24.60 102.39 C 11.81 82.46 14.32 54.04 30.95 37.06 C 31.80 37.79 32.59 38.60 33.38 39.39 C 23.30 50.14 18.31 65.47 20.30 80.09 C 21.96 94.42 30.21 107.79 42.18 115.83 C 54.24 124.09 69.96 126.75 84.05 122.80 C 91.92 120.75 99.10 116.55 105.12 111.13 C 105.95 111.96 106.79 112.80 107.62 113.65 C 97.64 122.57 84.47 128.17 70.98 127.90 C 52.44 128.40 34.23 118.16 24.60 102.39 Z" />
</g>
<g id="#ea5a47ff">
<path fill="#ea5a47" opacity="1.00" d=" M 24.11 72.98 C 23.93 61.60 28.82 50.68 36.13 42.14 C 58.25 64.10 80.20 86.22 102.28 108.21 C 93.57 116.17 81.83 120.73 70.02 120.48 C 56.20 120.40 42.68 113.67 34.12 102.84 C 27.42 94.47 23.70 83.71 24.11 72.98 M 35.74 58.96 C 39.22 59.25 41.59 56.64 41.85 53.30 C 38.65 53.68 36.56 55.99 35.74 58.96 M 33.52 84.82 C 36.60 84.24 38.27 81.67 38.66 78.74 C 35.83 79.25 32.09 81.37 33.52 84.82 M 48.57 84.71 C 51.79 84.50 53.84 82.23 54.95 79.38 C 51.39 78.54 49.07 81.51 48.57 84.71 M 60.60 96.73 C 63.91 96.51 66.18 94.24 66.74 91.01 C 63.29 90.94 61.11 93.54 60.60 96.73 M 41.71 103.14 C 44.94 102.79 47.14 100.39 47.65 97.23 C 44.30 97.43 41.92 99.82 41.71 103.14 M 86.21 109.66 C 89.32 109.10 91.58 106.94 92.18 103.85 C 88.75 103.76 86.32 106.26 86.21 109.66 M 61.43 113.10 C 63.92 111.88 65.87 109.92 67.00 107.38 C 63.49 106.42 60.27 109.57 61.43 113.10 Z" />
</g>
</svg>
